<svg width="324" height="114" viewBox="0 0 324 114" fill="none" xmlns="http://www.w3.org/2000/svg">
<path d="M56.8141 72.3516L54.3223 75.4807L54.3363 75.4918L54.3504 75.5028L56.8141 72.3516ZM27.6344 59.8359L29.4067 56.25L29.3978 56.2456L27.6344 59.8359ZM12.6578 18L9.47843 15.5727L9.47449 15.5779L12.6578 18ZM26.7203 7.875L28.1909 11.5948L28.2034 11.5899L28.2158 11.5849L26.7203 7.875ZM66.8687 8.15625L65.2224 11.8017L65.2334 11.8067L66.8687 8.15625ZM80.5094 19.4062L77.1762 21.6176L77.1812 21.6251L77.1861 21.6325L80.5094 19.4062ZM85.3609 36V40H89.3609V36H85.3609ZM60.7516 36H56.7516V40H60.7516V36ZM56.8844 26.2969L54.1964 29.2591L54.2099 29.2714L54.2235 29.2835L56.8844 26.2969ZM36.0719 25.8047L38.4907 28.9905L38.4995 28.9838L36.0719 25.8047ZM36.4937 40.3594L34.06 43.5338L34.0768 43.5467L34.0937 43.5594L36.4937 40.3594ZM51.3297 46.9688L50.095 50.7734L50.1065 50.7771L50.1179 50.7808L51.3297 46.9688ZM68.7672 54.2812L66.7673 57.7454L66.77 57.747L68.7672 54.2812ZM24.8922 104.977L23.2582 108.628L23.2735 108.634L23.2889 108.641L24.8922 104.977ZM9.70468 92.7422L6.34884 94.919L6.36024 94.9365L6.37183 94.954L9.70468 92.7422ZM4.64218 74.8125V70.8125H0.642181V74.8125H4.64218ZM29.3922 74.8125H33.3922V70.8125H29.3922V74.8125ZM33.6109 86.9766L30.8817 89.9008L30.9068 89.9243L30.9324 89.9473L33.6109 86.9766ZM57.0953 88.2422L59.4747 91.4576L59.4852 91.4497L57.0953 88.2422ZM64.6812 80.7891C64.6812 76.0939 62.9343 72.0591 59.2777 69.2003L54.3504 75.5028C55.8501 76.6753 56.6812 78.2655 56.6812 80.7891H64.6812ZM59.3058 69.2224C56.1934 66.7441 51.1459 64.4804 44.6576 62.3018L42.1112 69.8857C48.4666 72.0196 52.3722 73.9278 54.3223 75.4807L59.3058 69.2224ZM44.6576 62.3018C38.3326 60.1781 33.2658 58.1574 29.4067 56.25L25.862 63.4219C30.1591 65.5457 35.5924 67.6969 42.1112 69.8857L44.6576 62.3018ZM29.3978 56.2456C17.0185 50.1653 11.7359 42.3693 11.7359 32.9766H3.73593C3.73593 46.3651 11.719 56.4753 25.8709 63.4262L29.3978 56.2456ZM11.7359 32.9766C11.7359 28.1359 13.1156 24.0042 15.8411 20.4221L9.47449 15.5779C5.63752 20.6208 3.73593 26.4735 3.73593 32.9766H11.7359ZM15.8372 20.4273C18.648 16.7455 22.694 13.7681 28.1909 11.5948L25.2497 4.15516C18.6529 6.76319 13.3239 10.5357 9.47844 15.5727L15.8372 20.4273ZM28.2158 11.5849C33.7186 9.36674 39.9968 8.21875 47.1109 8.21875V0.21875C39.1313 0.21875 31.8158 1.50826 25.2248 4.16507L28.2158 11.5849ZM47.1109 8.21875C53.9895 8.21875 60.0011 9.44371 65.2224 11.8017L68.5151 4.51077C62.1114 1.61879 54.9511 0.21875 47.1109 0.21875V8.21875ZM65.2334 11.8067C70.4719 14.1535 74.4006 17.4341 77.1762 21.6176L83.8425 17.1949C80.1494 11.6284 74.9844 7.40899 68.5041 4.50584L65.2334 11.8067ZM77.1861 21.6325C79.9468 25.7534 81.3609 30.4978 81.3609 36H89.3609C89.3609 29.0334 87.5407 22.7153 83.8326 17.18L77.1861 21.6325ZM85.3609 32H60.7516V40H85.3609V32ZM64.7516 36C64.7516 30.9457 63.1509 26.5226 59.5452 23.3102L54.2235 29.2835C55.7741 30.6649 56.7516 32.7106 56.7516 36H64.7516ZM59.5723 23.3346C56.1194 20.2015 51.6186 18.8516 46.5484 18.8516V26.8516C50.197 26.8516 52.5868 27.7985 54.1964 29.2591L59.5723 23.3346ZM46.5484 18.8516C41.5757 18.8516 37.1318 19.9624 33.6442 22.6256L38.4995 28.9838C40.1682 27.7095 42.7087 26.8516 46.5484 26.8516V18.8516ZM33.653 22.6189C30.1945 25.2448 28.275 28.8528 28.275 33.1875H36.275C36.275 31.5222 36.8867 30.2083 38.4907 28.9905L33.653 22.6189ZM28.275 33.1875C28.275 37.4602 30.6319 40.9055 34.06 43.5338L38.9275 37.1849C36.7306 35.5007 36.275 34.1648 36.275 33.1875H28.275ZM34.0937 43.5594C37.47 46.0916 42.9586 48.4576 50.095 50.7734L52.5643 43.1641C45.5445 40.8861 41.1424 38.8459 38.8937 37.1594L34.0937 43.5594ZM50.1179 50.7808C57.0248 52.9764 62.5488 55.31 66.7673 57.7454L70.7671 50.8171C65.8918 48.0025 59.7908 45.4611 52.5415 43.1567L50.1179 50.7808ZM66.77 57.747C76.8011 63.5276 81.3609 71.1002 81.3609 80.6484H89.3609C89.3609 67.7905 82.8583 57.7849 70.7644 50.8155L66.77 57.747ZM81.3609 80.6484C81.3609 88.4328 78.5077 94.2489 72.8218 98.5529L77.6501 104.932C85.4641 99.0167 89.3609 90.7703 89.3609 80.6484H81.3609ZM72.8218 98.5529C66.992 102.966 58.6893 105.406 47.4625 105.406V113.406C59.7669 113.406 69.9798 110.737 77.6501 104.932L72.8218 98.5529ZM47.4625 105.406C39.6479 105.406 32.6798 104.018 26.4955 101.312L23.2889 108.641C30.6046 111.842 38.6834 113.406 47.4625 113.406V105.406ZM26.5262 101.326C20.3834 98.5763 15.9681 94.9462 13.0375 90.5304L6.37183 94.954C10.2851 100.851 15.9947 105.377 23.2582 108.628L26.5262 101.326ZM13.0605 90.5654C10.1431 86.0677 8.64218 80.8611 8.64218 74.8125H0.642181C0.642181 82.2639 2.51631 89.0105 6.34884 94.919L13.0605 90.5654ZM4.64218 78.8125H29.3922V70.8125H4.64218V78.8125ZM25.3922 74.8125C25.3922 80.9248 26.9638 86.2441 30.8817 89.9008L36.3402 84.0523C34.6331 82.4591 33.3922 79.6689 33.3922 74.8125H25.3922ZM30.9324 89.9473C34.878 93.5049 40.7043 94.8438 47.4625 94.8438V86.8438C41.4707 86.8438 38.0626 85.6045 36.2895 84.0058L30.9324 89.9473ZM47.4625 94.8438C52.0644 94.8438 56.2158 93.8692 59.4747 91.4576L54.7159 85.0268C53.2874 86.084 51.0168 86.8438 47.4625 86.8438V94.8438ZM59.4852 91.4497C62.968 88.8547 64.6812 85.1382 64.6812 80.7891H56.6812C56.6812 82.8149 56.0039 84.0671 54.7054 85.0347L59.4852 91.4497ZM159.344 80.1562L155.485 81.2084L159.337 95.3386L163.202 81.2118L159.344 80.1562ZM179.734 5.625V1.625H176.682L175.876 4.56945L179.734 5.625ZM207.297 5.625L211.088 6.90084L212.863 1.625H207.297V5.625ZM172.844 108V112H175.718L176.635 109.276L172.844 108ZM145.844 108L142.05 109.266L142.962 112H145.844V108ZM111.672 5.625V1.625H106.12L107.878 6.89147L111.672 5.625ZM139.023 5.625L142.883 4.57284L142.079 1.625H139.023V5.625ZM163.202 81.2118L183.593 6.68055L175.876 4.56945L155.486 79.1007L163.202 81.2118ZM179.734 9.625H207.297V1.625H179.734V9.625ZM203.506 4.34916L169.053 106.724L176.635 109.276L211.088 6.90084L203.506 4.34916ZM172.844 104H145.844V112H172.844V104ZM149.638 106.734L115.466 4.35853L107.878 6.89147L142.05 109.266L149.638 106.734ZM111.672 9.625H139.023V1.625H111.672V9.625ZM135.164 6.67716L155.485 81.2084L163.203 79.1041L142.883 4.57284L135.164 6.67716ZM319.248 95.3438L322.222 98.0196L323.248 96.8787V95.3438H319.248ZM233.537 62.8594L229.538 62.8911L229.538 62.9521L229.54 63.0131L233.537 62.8594ZM233.467 54H229.467V54.0159L229.467 54.0317L233.467 54ZM238.811 27.6328L242.424 29.349L242.428 29.3403L238.811 27.6328ZM254.069 10.2656L256.152 13.6806L256.158 13.6764L254.069 10.2656ZM306.803 12.9375L304.242 16.0104L304.253 16.0196L304.265 16.0288L306.803 12.9375ZM319.178 39.0234V43.0234H323.603L323.158 38.6206L319.178 39.0234ZM295.412 39.0234L291.455 39.6073L291.959 43.0234H295.412V39.0234ZM258.498 53.5078L254.498 53.4886L254.498 53.4982V53.5078H258.498ZM263.702 82.7578L260.383 84.9905L260.394 85.0079L260.406 85.0252L263.702 82.7578ZM294.569 86.1328L297.262 89.0906L298.569 87.9005V86.1328H294.569ZM294.569 70.2422H298.569V66.2422H294.569V70.2422ZM277.412 70.2422H273.412V74.2422H277.412V70.2422ZM277.412 53.2969V49.2969H273.412V53.2969H277.412ZM319.248 53.2969H323.248V49.2969H319.248V53.2969ZM316.275 92.6679C313.06 96.2408 308.156 99.3332 301.254 101.767L303.914 109.311C311.637 106.589 317.843 102.884 322.222 98.0196L316.275 92.6679ZM301.254 101.767C294.419 104.177 286.859 105.406 278.537 105.406V113.406C287.653 113.406 296.125 112.058 303.914 109.311L301.254 101.767ZM278.537 105.406C266.011 105.406 256.401 101.609 249.266 94.306L243.544 99.8971C252.439 109.001 264.251 113.406 278.537 113.406V105.406ZM249.266 94.306C242.118 86.9915 238.07 76.6224 237.535 62.7056L229.54 63.0131C230.13 78.3464 234.66 90.8054 243.544 99.8971L249.266 94.306ZM237.537 62.8276L237.467 53.9683L229.467 54.0317L229.538 62.8911L237.537 62.8276ZM237.467 54C237.467 44.3908 239.165 36.2105 242.424 29.349L235.198 25.9166C231.332 34.0552 229.467 43.4529 229.467 54H237.467ZM242.428 29.3403C245.684 22.4426 250.262 17.2728 256.152 13.6805L251.986 6.8507C244.657 11.3209 239.063 17.7293 235.194 25.9253L242.428 29.3403ZM256.158 13.6764C262.114 10.0274 269.061 8.14844 277.131 8.14844V0.148438C267.764 0.148438 259.336 2.3476 251.979 6.85487L256.158 13.6764ZM277.131 8.14844C289.31 8.14844 298.167 10.9479 304.242 16.0104L309.364 9.86461C301.376 3.20833 290.453 0.148438 277.131 0.148438V8.14844ZM304.265 16.0288C310.32 21.0016 314.103 28.6009 315.198 39.4262L323.158 38.6206C321.91 26.2898 317.442 16.4984 309.342 9.84624L304.265 16.0288ZM319.178 35.0234H295.412V43.0234H319.178V35.0234ZM299.37 38.4396C298.46 32.2735 296.391 27.0967 292.548 23.7663L287.308 29.8118C289.091 31.3564 290.678 34.3359 291.455 39.6073L299.37 38.4396ZM292.548 23.7663C288.77 20.4923 283.723 19.1328 277.975 19.1328V27.1328C282.539 27.1328 285.461 28.2108 287.308 29.8118L292.548 23.7663ZM277.975 19.1328C270.412 19.1328 264.37 22.462 260.267 28.8448L266.996 33.1708C269.643 29.0536 273.163 27.1328 277.975 27.1328V19.1328ZM260.267 28.8448C256.31 34.9997 254.547 43.371 254.498 53.4886L262.498 53.527C262.543 44.1446 264.203 37.516 266.996 33.1708L260.267 28.8448ZM254.498 53.5078V59.6953H262.498V53.5078H254.498ZM254.498 59.6953C254.498 70.2458 256.267 78.8731 260.383 84.9905L267.02 80.5251C264.198 76.3301 262.498 69.5823 262.498 59.6953H254.498ZM260.406 85.0252C264.83 91.4545 271.722 94.4219 280.225 94.4219V86.4219C273.728 86.4219 269.604 84.2799 266.997 80.4904L260.406 85.0252ZM280.225 94.4219C287.147 94.4219 293.086 92.8925 297.262 89.0906L291.876 83.1751C289.77 85.0919 286.146 86.4219 280.225 86.4219V94.4219ZM298.569 86.1328V70.2422H290.569V86.1328H298.569ZM294.569 66.2422H277.412V74.2422H294.569V66.2422ZM281.412 70.2422V53.2969H273.412V70.2422H281.412ZM277.412 57.2969H319.248V49.2969H277.412V57.2969ZM315.248 53.2969V95.3438H323.248V53.2969H315.248Z" fill="white"/>
</svg>
