<svg width="660px" height="657px" viewBox="0 0 660 657">
    <g>
        <polygon points="394.682,382.465 288.073,353.766 248.848,314.355 215.079,369.957 243.301,332.377 222.079,367.957 
250.305,330.369 229.079,365.957 256.778,329.076 256.825,329.177 236.079,363.957 258.883,333.594 259.372,334.644 
243.079,361.957 260.987,338.11 261.311,338.807 231.209,393.623 284.934,369.832 " />
        <path d="M484.698,379.579l-31.945-36.316l-58.324-45.159l-55.612-70.054l-40.582,52.069l-21.051-18.261L159.061,393.684v6.148
h347.474v-6.146L484.698,379.579z M479.607,393.623l-192.673-21.791l-4.629,4.053l194.975,17.738h-36.922l-149.423-14.791
l-4.629,4.053l145.209,10.738h-31.391l-105.189-7.791l-4.629,4.053l94.834,3.738H231.209h-63.512l108.33-121.35l28.629,52.508
l48.496,27.057l-0.117-0.1l0.131-0.036l2.775-26.882l-21.285-49.957l17.488,54.438l-21.488-50.438l17.488,54.444l-21.488-50.444
l17.486,54.431l-21.486-50.429l17.222,53.612l-0.137-0.117l-21.085-49.497l13.933,43.375l-1.82-1.562l-16.113-37.816L325.301,328
l-3.512-3.006l-11.133-26.131l7.355,22.898l-2.828-2.424l-12.41-35.281l34.371-44.104l43.078,106.871l78.727,32.94l-58.152-35.674
l-49.711-88.172l53.883,84.501l-20.777-40.966l28.773,44.966l-20.605-40.642l0.082,0.066l28.527,44.576l-18.684-36.839
l1.098,0.861l25.582,39.978l-16.754-33.042l2.117,1.666l22.641,35.376l-14.828-29.236l3.137,2.463l19.688,30.771l-12.895-25.433
l16.277,12.792l32.23,36.732l14.839,9.113H479.607z" />
    </g>
</svg> 