<svg width="301" height="169" viewBox="0 0 301 169" fill="none" xmlns="http://www.w3.org/2000/svg">
<path d="M149.859 106.156L146.965 106.945L149.854 117.543L152.753 106.948L149.859 106.156ZM170.25 31.625V28.625H167.961L167.356 30.8333L170.25 31.625ZM197.812 31.625L200.656 32.5819L201.987 28.625H197.812V31.625ZM163.359 134V137H165.515L166.203 134.957L163.359 134ZM136.359 134L133.514 134.95L134.198 137H136.359V134ZM102.188 31.625V28.625H98.0234L99.3418 32.5749L102.188 31.625ZM129.539 31.625L132.433 30.8359L131.831 28.625H129.539V31.625ZM152.753 106.948L173.144 32.4167L167.356 30.8333L146.966 105.365L152.753 106.948ZM170.25 34.625H197.812V28.625H170.25V34.625ZM194.969 30.6681L160.516 133.043L166.203 134.957L200.656 32.5819L194.969 30.6681ZM163.359 131H136.359V137H163.359V131ZM139.205 133.05L105.033 30.6751L99.3418 32.5749L133.514 134.95L139.205 133.05ZM102.188 34.625H129.539V28.625H102.188V34.625ZM126.645 32.4141L146.965 106.945L152.754 105.367L132.433 30.8359L126.645 32.4141Z" fill="white"/>
<path d="M57.1016 98.3516L55.2328 100.698L55.2433 100.707L55.2538 100.715L57.1016 98.3516ZM27.9219 85.8359L29.2511 83.1465L29.2445 83.1432L27.9219 85.8359ZM12.9453 44L10.5608 42.1796L10.5578 42.1834L12.9453 44ZM27.0078 33.875L28.1108 36.6649L28.1201 36.6612L28.1294 36.6574L27.0078 33.875ZM67.1562 34.1562L65.9215 36.8904L65.9297 36.8941L67.1562 34.1562ZM80.7969 45.4062L78.297 47.0648L78.3045 47.0759L80.7969 45.4062ZM85.6484 62V65H88.6484V62H85.6484ZM61.0391 62H58.0391V65H61.0391V62ZM57.1719 52.2969L55.1559 54.5186L55.166 54.5278L55.1763 54.5369L57.1719 52.2969ZM36.3594 51.8047L38.1735 54.194L38.1801 54.189L36.3594 51.8047ZM36.7812 66.3594L34.956 68.7402L34.9686 68.7499L34.9813 68.7594L36.7812 66.3594ZM51.6172 72.9688L50.6912 75.8223L50.6998 75.825L50.7084 75.8278L51.6172 72.9688ZM69.0547 80.2812L67.5547 82.8794L67.5568 82.8805L69.0547 80.2812ZM25.1797 130.977L23.9542 133.715L23.9657 133.72L23.9772 133.725L25.1797 130.977ZM9.99219 118.742L7.4753 120.375L7.48386 120.388L7.49255 120.401L9.99219 118.742ZM4.92969 100.812V97.8125H1.92969V100.812H4.92969ZM29.6797 100.812H32.6797V97.8125H29.6797V100.812ZM33.8984 112.977L31.8515 115.17L31.8704 115.187L31.8895 115.205L33.8984 112.977ZM57.3828 114.242L59.1674 116.654L59.1753 116.648L57.3828 114.242ZM63.9688 106.789C63.9688 102.365 62.3363 98.6361 58.9493 95.9881L55.2538 100.715C57.0231 102.098 57.9688 103.994 57.9688 106.789H63.9688ZM58.9703 96.0047C56.0032 93.642 51.0985 91.4228 44.6268 89.2498L42.717 94.9377C49.089 97.0772 53.1374 99.0298 55.2328 100.698L58.9703 96.0047ZM44.6268 89.2498C38.2775 87.1179 33.165 85.0809 29.2511 83.1465L26.5926 88.5254C30.835 90.6222 36.2225 92.7571 42.717 94.9377L44.6268 89.2498ZM29.2445 83.1432C16.6436 76.9541 11.0234 68.8688 11.0234 58.9766H5.02344C5.02344 71.8656 12.6689 81.6866 26.5993 88.5287L29.2445 83.1432ZM11.0234 58.9766C11.0234 53.9281 12.4683 49.5813 15.3328 45.8166L10.5578 42.1834C6.85979 47.0437 5.02344 52.6813 5.02344 58.9766H11.0234ZM15.3298 45.8204C18.27 41.9693 22.4763 38.8925 28.1108 36.6649L25.9048 31.0851C19.4455 33.6388 14.2769 37.312 10.5608 42.1796L15.3298 45.8204ZM28.1294 36.6574C33.7682 34.3844 40.1761 33.2188 47.3984 33.2188V27.2188C39.527 27.2188 32.3411 28.4906 25.8862 31.0926L28.1294 36.6574ZM47.3984 33.2188C54.3972 33.2188 60.5524 34.4656 65.9215 36.8904L68.391 31.4221C62.1351 28.5969 55.1184 27.2188 47.3984 27.2188V33.2188ZM65.9297 36.8941C71.3234 39.3104 75.4067 42.7084 78.297 47.0648L83.2967 43.7477C79.7183 38.3541 74.7078 34.2521 68.3828 31.4184L65.9297 36.8941ZM78.3045 47.0759C81.1835 51.3737 82.6484 56.3148 82.6484 62H88.6484C88.6484 55.2165 86.879 49.0951 83.2893 43.7366L78.3045 47.0759ZM85.6484 59H61.0391V65H85.6484V59ZM64.0391 62C64.0391 57.1663 62.5163 53.0404 59.1675 50.0569L55.1763 54.5369C56.9837 56.1471 58.0391 58.4899 58.0391 62H64.0391ZM59.1878 50.0752C55.9654 47.1511 51.7284 45.8516 46.8359 45.8516V51.8516C50.6622 51.8516 53.3159 52.8489 55.1559 54.5186L59.1878 50.0752ZM46.8359 45.8516C42.0048 45.8516 37.7989 46.9308 34.5386 49.4204L38.1801 54.189C40.0761 52.7411 42.8546 51.8516 46.8359 51.8516V45.8516ZM34.5452 49.4153C31.3185 51.8653 29.5625 55.1865 29.5625 59.1875H35.5625C35.5625 57.1885 36.3377 55.5879 38.1735 54.194L34.5452 49.4153ZM29.5625 59.1875C29.5625 63.0482 31.6817 66.2299 34.956 68.7402L38.6065 63.9786C36.2558 62.1763 35.5625 60.5768 35.5625 59.1875H29.5625ZM34.9813 68.7594C38.2166 71.1859 43.5693 73.5112 50.6912 75.8223L52.5432 70.1152C45.5088 67.8326 40.9709 65.7516 38.5812 63.9594L34.9813 68.7594ZM50.7084 75.8278C57.6581 78.037 63.2542 80.3966 67.5547 82.8794L70.5546 77.6831C65.7614 74.9159 59.7326 72.4005 52.526 70.1097L50.7084 75.8278ZM67.5568 82.8805C77.8457 88.8098 82.6484 96.6864 82.6484 106.648H88.6484C88.6484 94.2042 82.3887 84.5027 70.5526 77.682L67.5568 82.8805ZM82.6484 106.648C82.6484 114.725 79.6648 120.845 73.7128 125.35L77.3341 130.134C84.8821 124.421 88.6484 116.478 88.6484 106.648H82.6484ZM73.7128 125.35C67.653 129.937 59.1115 132.406 47.75 132.406V138.406C59.9197 138.406 69.8939 135.766 77.3341 130.134L73.7128 125.35ZM47.75 132.406C39.8148 132.406 32.7079 130.996 26.3821 128.228L23.9772 133.725C31.1515 136.864 39.0915 138.406 47.75 138.406V132.406ZM26.4052 128.238C20.1224 125.426 15.5452 121.684 12.4918 117.083L7.49255 120.401C11.2829 126.113 16.8308 130.527 23.9542 133.715L26.4052 128.238ZM12.5091 117.11C9.47722 112.436 7.92969 107.036 7.92969 100.812H1.92969C1.92969 108.089 3.75716 114.643 7.4753 120.375L12.5091 117.11ZM4.92969 103.812H29.6797V97.8125H4.92969V103.812ZM26.6797 100.812C26.6797 106.768 28.2099 111.771 31.8515 115.17L35.9454 110.783C33.9619 108.932 32.6797 105.826 32.6797 100.812H26.6797ZM31.8895 115.205C35.5636 118.517 41.0876 119.844 47.75 119.844V113.844C41.6624 113.844 37.952 112.592 35.9073 110.748L31.8895 115.205ZM47.75 119.844C52.221 119.844 56.1372 118.896 59.1673 116.654L55.5983 111.831C53.9409 113.057 51.4353 113.844 47.75 113.844V119.844ZM59.1753 116.648C62.385 114.256 63.9688 110.848 63.9688 106.789H57.9688C57.9688 109.105 57.1619 110.666 55.5904 111.837L59.1753 116.648Z" fill="white"/>
<path d="M293.969 121.344L296.199 123.351L296.969 122.495V121.344H293.969ZM208.258 88.8594L205.258 88.8832L205.258 88.9289L205.26 88.9747L208.258 88.8594ZM208.188 80H205.188V80.0119L205.188 80.0238L208.188 80ZM213.531 53.6328L216.241 54.92L216.244 54.9134L213.531 53.6328ZM228.789 36.2656L230.351 38.8268L230.356 38.8237L228.789 36.2656ZM281.523 38.9375L279.603 41.2422L279.611 41.2491L279.62 41.2559L281.523 38.9375ZM293.898 65.0234V68.0234H297.217L296.883 64.7213L293.898 65.0234ZM270.133 65.0234L267.165 65.4613L267.543 68.0234H270.133V65.0234ZM233.219 79.5078L230.219 79.4934L230.219 79.5006V79.5078H233.219ZM238.422 108.758L235.933 110.432L235.941 110.445L235.95 110.458L238.422 108.758ZM269.289 112.133L271.309 114.351L272.289 113.459V112.133H269.289ZM269.289 96.2422H272.289V93.2422H269.289V96.2422ZM252.133 96.2422H249.133V99.2422H252.133V96.2422ZM252.133 79.2969V76.2969H249.133V79.2969H252.133ZM293.969 79.2969H296.969V76.2969H293.969V79.2969ZM291.739 119.337C288.378 123.071 283.312 126.24 276.307 128.71L278.302 134.368C285.923 131.682 291.966 128.054 296.199 123.351L291.739 119.337ZM276.307 128.71C269.352 131.162 261.679 132.406 253.258 132.406V138.406C262.274 138.406 270.632 137.073 278.302 134.368L276.307 128.71ZM253.258 132.406C240.511 132.406 230.626 128.533 223.271 121.005L218.979 125.198C227.655 134.077 239.192 138.406 253.258 138.406V132.406ZM223.271 121.005C215.906 113.468 211.798 102.838 211.256 88.7441L205.26 88.9747C205.843 104.131 210.312 116.329 218.979 125.198L223.271 121.005ZM211.258 88.8356L211.187 79.9762L205.188 80.0238L205.258 88.8832L211.258 88.8356ZM211.188 80C211.188 70.2736 212.906 61.9411 216.241 54.92L210.821 52.3456C207.031 60.3246 205.188 69.5702 205.188 80H211.188ZM216.244 54.9134C219.577 47.8535 224.282 42.5288 230.351 38.8268L227.227 33.7044C220.078 38.0649 214.611 44.3184 210.818 52.3522L216.244 54.9134ZM230.356 38.8237C236.487 35.0674 243.619 33.1484 251.852 33.1484V27.1484C242.646 27.1484 234.403 29.3076 227.222 33.7076L230.356 38.8237ZM251.852 33.1484C264.173 33.1484 273.289 35.9805 279.603 41.2422L283.444 36.6328C275.696 30.1758 265.03 27.1484 251.852 27.1484V33.1484ZM279.62 41.2559C285.931 46.4387 289.799 54.312 290.914 65.3255L296.883 64.7213C295.654 52.5786 291.272 43.0613 283.427 36.6191L279.62 41.2559ZM293.898 62.0234H270.133V68.0234H293.898V62.0234ZM273.101 64.5856C272.207 58.5313 270.198 53.6292 266.613 50.522L262.684 55.0561C264.723 56.824 266.371 60.0781 267.165 65.4613L273.101 64.5856ZM266.613 50.522C263.077 47.4571 258.296 46.1328 252.695 46.1328V52.1328C257.407 52.1328 260.595 53.246 262.684 55.0561L266.613 50.522ZM252.695 46.1328C245.476 46.1328 239.749 49.2859 235.828 55.3855L240.875 58.6301C243.704 54.2297 247.539 52.1328 252.695 52.1328V46.1328ZM235.828 55.3855C232.017 61.3142 230.267 69.4677 230.219 79.4934L236.219 79.5222C236.264 70.0479 237.936 63.2014 240.875 58.6301L235.828 55.3855ZM230.219 79.5078V85.6953H236.219V79.5078H230.219ZM230.219 85.6953C230.219 96.1629 231.979 104.555 235.933 110.432L240.911 107.083C237.927 102.648 236.219 95.6652 236.219 85.6953H230.219ZM235.95 110.458C240.147 116.558 246.693 119.422 254.945 119.422V113.422C248.197 113.422 243.728 111.177 240.893 107.057L235.95 110.458ZM254.945 119.422C261.743 119.422 267.392 117.917 271.309 114.351L267.269 109.914C264.905 112.067 260.992 113.422 254.945 113.422V119.422ZM272.289 112.133V96.2422H266.289V112.133H272.289ZM269.289 93.2422H252.133V99.2422H269.289V93.2422ZM255.133 96.2422V79.2969H249.133V96.2422H255.133ZM252.133 82.2969H293.969V76.2969H252.133V82.2969ZM290.969 79.2969V121.344H296.969V79.2969H290.969Z" fill="white"/>
</svg>
