<svg width="326" height="169" viewBox="0 0 326 169" fill="none" xmlns="http://www.w3.org/2000/svg">
<path d="M42.0469 88.3672L42.8807 85.4854L42.8757 85.4839L42.0469 88.3672ZM16.7344 76.1328L14.693 78.3312L14.7032 78.3406L14.7134 78.35L16.7344 76.1328ZM18.4922 38.1641L20.391 40.4867L20.3928 40.4852L18.4922 38.1641ZM62.4375 34.2969L61.105 36.9848L61.1141 36.9892L62.4375 34.2969ZM75.2344 45.5469L72.6932 47.1413L72.6988 47.1502L72.7044 47.1591L75.2344 45.5469ZM79.8047 61.2266V64.2266H82.8047V61.2266H79.8047ZM66.2344 61.2266H63.2344V64.2266H66.2344V61.2266ZM60.3281 46.6719L58.3154 48.8965L58.3227 48.9031L58.3301 48.9097L60.3281 46.6719ZM28.0547 45.7578L29.9068 48.1178L29.9108 48.1147L28.0547 45.7578ZM27.7734 68.5391L25.862 70.8513L25.8787 70.8651L25.8956 70.8787L27.7734 68.5391ZM45.8438 76.4141L45.0301 79.3016L45.0343 79.3028L45.8438 76.4141ZM65.8125 84.3594L64.2543 86.9229L64.269 86.9319L64.2838 86.9407L65.8125 84.3594ZM76.5 94.4141L73.9248 95.9529L73.9316 95.9644L73.9386 95.9759L76.5 94.4141ZM70.3125 127.953L72.14 130.332L72.1508 130.324L70.3125 127.953ZM24.6797 131.398L23.4574 134.138L23.4662 134.142L23.475 134.146L24.6797 131.398ZM10.5469 120.289L8.08918 122.009L8.09493 122.018L8.10073 122.026L10.5469 120.289ZM5.625 104.328V101.328H2.625V104.328H5.625ZM19.1953 104.328H22.1953V101.328H19.1953V104.328ZM26.0156 119.023L24.1504 121.373L24.1637 121.384L24.1772 121.394L26.0156 119.023ZM61.1719 96.5234L59.317 98.8813L59.3268 98.889L59.3366 98.8966L61.1719 96.5234ZM42.8757 85.4839C31.4772 82.2075 23.5542 78.2899 18.7553 73.9157L14.7134 78.35C20.5083 83.632 29.4603 87.8707 41.2181 91.2504L42.8757 85.4839ZM18.7757 73.9344C14.1332 69.6235 11.8594 64.4184 11.8594 58.1328H5.85938C5.85938 66.0973 8.83557 72.8921 14.693 78.3312L18.7757 73.9344ZM11.8594 58.1328C11.8594 51.0001 14.6428 45.1859 20.391 40.4867L16.5934 35.8414C9.4978 41.6422 5.85938 49.1405 5.85938 58.1328H11.8594ZM20.3928 40.4852C26.2092 35.7225 33.8778 33.2188 43.6641 33.2188V27.2188C32.8254 27.2188 23.7126 30.0119 16.5916 35.8429L20.3928 40.4852ZM43.6641 33.2188C50.3019 33.2188 56.0924 34.4998 61.1051 36.9847L63.7699 31.609C57.8138 28.6564 51.0887 27.2188 43.6641 27.2188V33.2188ZM61.1141 36.9892C66.193 39.4856 70.0163 42.875 72.6932 47.1413L77.7756 43.9524C74.4525 38.6562 69.7445 34.5457 63.7609 31.6045L61.1141 36.9892ZM72.7044 47.1591C75.4442 51.4584 76.8047 56.1256 76.8047 61.2266H82.8047C82.8047 54.9837 81.1183 49.1978 77.7643 43.9346L72.7044 47.1591ZM79.8047 58.2266H66.2344V64.2266H79.8047V58.2266ZM69.2344 61.2266C69.2344 54.3461 67.0125 48.6183 62.3262 44.4341L58.3301 48.9097C61.5187 51.7567 63.2344 55.7321 63.2344 61.2266H69.2344ZM62.3409 44.4473C57.683 40.233 51.3155 38.3281 43.6641 38.3281V44.3281C50.3564 44.3281 55.0982 45.9857 58.3154 48.8965L62.3409 44.4473ZM43.6641 38.3281C36.5956 38.3281 30.6516 39.8942 26.1986 43.4009L29.9108 48.1147C32.9578 45.7152 37.42 44.3281 43.6641 44.3281V38.3281ZM26.2025 43.3978C21.6918 46.9379 19.5 51.9085 19.5 57.9219H25.5C25.5 53.529 27.0113 50.3902 29.9068 48.1178L26.2025 43.3978ZM19.5 57.9219C19.5 63.079 21.7301 67.4356 25.862 70.8513L29.6849 66.2268C26.7855 63.8301 25.5 61.1085 25.5 57.9219H19.5ZM25.8956 70.8787C29.9451 74.1289 36.4513 76.8844 45.0301 79.3016L46.6574 73.5265C38.2675 71.1625 32.7267 68.6679 29.6513 66.1995L25.8956 70.8787ZM45.0343 79.3028C53.4364 81.6572 59.8015 84.2164 64.2543 86.9229L67.3707 81.7958C62.261 78.6899 55.3136 75.9521 46.6532 73.5253L45.0343 79.3028ZM64.2838 86.9407C68.7886 89.6086 71.9414 92.6338 73.9248 95.9529L79.0752 92.8752C76.4649 88.5068 72.4926 84.8289 67.3412 81.7781L64.2838 86.9407ZM73.9386 95.9759C75.9532 99.2798 77.0156 103.245 77.0156 107.984H83.0156C83.0156 102.318 81.7343 97.2358 79.0614 92.8522L73.9386 95.9759ZM77.0156 107.984C77.0156 115.369 74.1985 121.144 68.4742 125.582L72.1508 130.324C79.364 124.731 83.0156 117.194 83.0156 107.984H77.0156ZM68.485 125.574C62.6891 130.026 54.7503 132.406 44.3672 132.406V138.406C55.6403 138.406 64.9984 135.818 72.14 130.332L68.485 125.574ZM44.3672 132.406C37.7267 132.406 31.577 131.147 25.8844 128.651L23.475 134.146C29.9699 136.994 36.9452 138.406 44.3672 138.406V132.406ZM25.902 128.659C20.2188 126.123 15.9633 122.736 12.993 118.552L8.10073 122.026C11.7867 127.217 16.9531 131.236 23.4574 134.138L25.902 128.659ZM13.0046 118.569C10.0912 114.407 8.625 109.692 8.625 104.328H2.625C2.625 110.87 4.44008 116.796 8.08918 122.009L13.0046 118.569ZM5.625 107.328H19.1953V101.328H5.625V107.328ZM16.1953 104.328C16.1953 111.362 18.8339 117.153 24.1504 121.373L27.8808 116.674C24.1036 113.675 22.1953 109.67 22.1953 104.328H16.1953ZM24.1772 121.394C29.4416 125.477 36.2706 127.367 44.3672 127.367V121.367C37.1825 121.367 31.7772 119.695 27.8541 116.653L24.1772 121.394ZM44.3672 127.367C51.8427 127.367 58.0519 125.851 62.5734 122.39L58.9266 117.626C55.8543 119.977 51.1416 121.367 44.3672 121.367V127.367ZM62.5734 122.39C67.1532 118.885 69.4453 114.021 69.4453 108.125H63.4453C63.4453 112.26 61.9405 115.319 58.9266 117.626L62.5734 122.39ZM69.4453 108.125C69.4453 102.317 67.3587 97.5155 63.0071 94.1503L59.3366 98.8966C62.0163 100.969 63.4453 103.902 63.4453 108.125H69.4453ZM63.0267 94.1656C59.0219 91.0151 52.1577 88.1696 42.8807 85.4854L41.2131 91.249C50.4048 93.9085 56.2906 96.5005 59.317 98.8813L63.0267 94.1656Z" fill="white"/>
<path d="M159.773 116.07L156.937 117.048L159.767 125.256L162.608 117.052L159.773 116.07ZM189.023 31.625V28.625H186.888L186.189 30.6431L189.023 31.625ZM203.789 31.625L206.602 32.6682L208.101 28.625H203.789V31.625ZM165.82 134V137H167.907L168.633 135.043L165.82 134ZM153.867 134L151.054 135.042L151.779 137H153.867V134ZM115.969 31.625V28.625H111.659L113.155 32.6665L115.969 31.625ZM130.664 31.625L133.5 30.6473L132.803 28.625H130.664V31.625ZM162.608 117.052L191.858 32.6069L186.189 30.6431L156.939 115.088L162.608 117.052ZM189.023 34.625H203.789V28.625H189.023V34.625ZM200.976 30.5818L163.008 132.957L168.633 135.043L206.602 32.6682L200.976 30.5818ZM165.82 131H153.867V137H165.82V131ZM156.681 132.958L118.782 30.5835L113.155 32.6665L151.054 135.042L156.681 132.958ZM115.969 34.625H130.664V28.625H115.969V34.625ZM127.828 32.6027L156.937 117.048L162.61 115.093L133.5 30.6473L127.828 32.6027Z" fill="white"/>
<path d="M314.469 120.57L316.929 122.288L317.469 121.514V120.57H314.469ZM299.914 131.75L301.014 134.541L301.025 134.537L299.914 131.75ZM256.039 129.57L254.479 132.133L254.486 132.137L254.493 132.141L256.039 129.57ZM240.992 112.836L238.295 114.149L238.298 114.157L238.302 114.164L240.992 112.836ZM235.578 87.7344H232.578V87.7492L232.578 87.7639L235.578 87.7344ZM246.336 42.9453L244.051 41.0013L244.045 41.0086L246.336 42.9453ZM302.516 38.4453L300.584 40.7405L300.593 40.7486L302.516 38.4453ZM314.469 61.6484V64.6484H317.935L317.438 61.2183L314.469 61.6484ZM300.969 61.6484L298.02 62.1995L298.477 64.6484H300.969V61.6484ZM256.18 50.8906L253.763 49.1135L253.76 49.1165L256.18 50.8906ZM249.148 78.4531L246.148 78.4415V78.4531H249.148ZM257.023 114.242L254.649 116.076L254.655 116.084L257.023 114.242ZM301.039 116.984L303.236 119.027L304.039 118.164V116.984H301.039ZM301.039 93.9922H304.039V90.9922H301.039V93.9922ZM277.344 93.9922H274.344V96.9922H277.344V93.9922ZM277.344 83.0234V80.0234H274.344V83.0234H277.344ZM314.469 83.0234H317.469V80.0234H314.469V83.0234ZM312.009 118.853C308.911 123.29 304.554 126.672 298.804 128.963L301.025 134.537C307.743 131.86 313.089 127.788 316.929 122.288L312.009 118.853ZM298.814 128.959C293.05 131.23 286.219 132.406 278.258 132.406V138.406C286.797 138.406 294.403 137.145 301.014 134.541L298.814 128.959ZM278.258 132.406C270.4 132.406 263.539 130.58 257.585 126.999L254.493 132.141C261.477 136.342 269.428 138.406 278.258 138.406V132.406ZM257.599 127.008C251.648 123.385 247.01 118.25 243.682 111.508L238.302 114.164C242.1 121.859 247.493 127.88 254.479 132.133L257.599 127.008ZM243.689 111.522C240.401 104.771 238.668 96.8569 238.578 87.7048L232.578 87.7639C232.676 97.6431 234.552 106.463 238.295 114.149L243.689 111.522ZM238.578 87.7344V78.8047H232.578V87.7344H238.578ZM238.578 78.8047C238.578 63.8184 242.063 52.6474 248.627 44.882L244.045 41.0086C236.265 50.212 232.578 62.9473 232.578 78.8047H238.578ZM248.621 44.8894C255.17 37.1915 264.394 33.2188 276.711 33.2188V27.2188C262.966 27.2188 251.939 31.7304 244.051 41.0013L248.621 44.8894ZM276.711 33.2188C286.877 33.2188 294.736 35.8179 300.584 40.7405L304.448 36.1502C297.264 30.104 287.92 27.2188 276.711 27.2188V33.2188ZM300.593 40.7486C306.435 45.6232 310.131 52.6293 311.5 62.0785L317.438 61.2183C315.9 50.6051 311.628 42.1424 304.438 36.142L300.593 40.7486ZM314.469 58.6484H300.969V64.6484H314.469V58.6484ZM303.918 61.0974C302.564 53.8546 299.661 48.0664 294.953 44.1112C290.24 40.1519 284.075 38.3281 276.781 38.3281V44.3281C283.081 44.3281 287.744 45.8911 291.094 48.7052C294.448 51.5235 296.842 55.8954 298.02 62.1995L303.918 61.0974ZM276.781 38.3281C266.937 38.3281 259.102 41.8516 253.763 49.1135L258.597 52.6678C262.632 47.1796 268.532 44.3281 276.781 44.3281V38.3281ZM253.76 49.1165C248.592 56.1638 246.197 66.079 246.148 78.4415L252.148 78.4648C252.194 66.7335 254.486 58.2737 258.599 52.6647L253.76 49.1165ZM246.148 78.4531V86.8203H252.148V78.4531H246.148ZM246.148 86.8203C246.148 98.7456 248.876 108.601 254.649 116.076L259.398 112.408C254.671 106.289 252.148 97.8638 252.148 86.8203H246.148ZM254.655 116.084C260.504 123.604 268.5 127.367 278.328 127.367V121.367C270.25 121.367 264.043 118.381 259.391 112.4L254.655 116.084ZM278.328 127.367C283.603 127.367 288.331 126.782 292.469 125.556L290.765 119.803C287.309 120.827 283.178 121.367 278.328 121.367V127.367ZM292.469 125.556C296.736 124.292 300.355 122.126 303.236 119.027L298.842 114.942C296.754 117.187 294.092 118.817 290.765 119.803L292.469 125.556ZM304.039 116.984V93.9922H298.039V116.984H304.039ZM301.039 90.9922H277.344V96.9922H301.039V90.9922ZM280.344 93.9922V83.0234H274.344V93.9922H280.344ZM277.344 86.0234H314.469V80.0234H277.344V86.0234ZM311.469 83.0234V120.57H317.469V83.0234H311.469Z" fill="white"/>
</svg>
